<svg width="753" height="378" xmlns="http://www.w3.org/2000/svg" xmlns:xlink="http://www.w3.org/1999/xlink" overflow="hidden"><g><rect x="0" y="0" width="753" height="377.833" fill="#FFFFFF"/><path d="M217 348.346C132.777 348.346 64.5 279.876 64.5 195.413 64.5 110.951 132.777 42.4812 217 42.4812L217 195.413Z" stroke="#FFFFFF" stroke-width="1.33392" stroke-miterlimit="8" fill="#959595" fill-rule="evenodd"/><rect x="217.5" y="42.4812" width="493" height="305.865" stroke="#959595" stroke-width="1.33392" stroke-miterlimit="8" fill="#FFFFFF" fill-opacity="0.901961"/><text font-family="Calibri,Calibri_MSFontService,sans-serif" font-weight="700" font-size="18.6667" transform="matrix(1 0 0 0.999557 304.557 80)">Frontend</text><path d="M217 332.353C154.868 332.353 104.5 282.007 104.5 219.903 104.5 157.798 154.868 107.452 217 107.452L217 219.903Z" stroke="#FFFFFF" stroke-width="1.33392" stroke-miterlimit="8" fill="#A5A5A5" fill-rule="evenodd"/><rect x="217.5" y="107.452" width="493" height="224.9" stroke="#A5A5A5" stroke-width="1.33392" stroke-miterlimit="8" fill="#FFFFFF" fill-opacity="0.901961"/><text font-family="Calibri,Calibri_MSFontService,sans-serif" font-weight="700" font-size="18.6667" transform="matrix(1 0 0 0.999557 291.432 144)">Admin Layer</text><path d="M217 317.359C176.959 317.359 144.5 284.914 144.5 244.892 144.5 204.869 176.959 172.424 217 172.424L217 244.892Z" stroke="#FFFFFF" stroke-width="1.33392" stroke-miterlimit="8" fill="#B6B6B6" fill-rule="evenodd"/><rect x="217.5" y="172.424" width="493" height="144.936" stroke="#B6B6B6" stroke-width="1.33392" stroke-miterlimit="8" fill="#FFFFFF" fill-opacity="0.901961"/><text font-family="Calibri,Calibri_MSFontService,sans-serif" font-weight="700" font-size="18.6667" transform="matrix(1 0 0 0.999557 299.128 209)">Core Layer</text><path d="M217 302.366C199.051 302.366 184.5 287.822 184.5 269.88 184.5 251.939 199.051 237.395 217 237.395L217 269.88Z" stroke="#FFFFFF" stroke-width="1.33392" stroke-miterlimit="8" fill="#C6C6C6" fill-rule="evenodd"/><rect x="217.5" y="237.395" width="493" height="64.9712" stroke="#C6C6C6" stroke-width="1.33392" stroke-miterlimit="8" fill="#FFFFFF" fill-opacity="0.901961"/><text font-family="Calibri,Calibri_MSFontService,sans-serif" font-weight="700" font-size="18.6667" transform="matrix(1 0 0 0.999557 245.895 274)">Adapter and</text><text font-family="Calibri,Calibri_MSFontService,sans-serif" font-weight="700" font-size="18.6667" transform="matrix(1 0 0 0.999557 346.406 274)">Connectors</text><text font-family="Calibri,Calibri_MSFontService,sans-serif" font-weight="400" font-size="13.3333" transform="matrix(1 0 0 0.999557 489.162 55)">•</text><text font-family="Calibri,Calibri_MSFontService,sans-serif" font-weight="400" font-size="13.3333" transform="matrix(1 0 0 0.999557 498.699 55)">HTML Templates, Bootstrap 5,</text><text font-family="Calibri,Calibri_MSFontService,sans-serif" font-weight="400" font-size="13.3333" transform="matrix(1 0 0 0.999557 498.699 70)">jQuery</text><text font-family="Calibri,Calibri_MSFontService,sans-serif" font-weight="400" font-size="13.3333" transform="matrix(1 0 0 0.999557 489.162 87)">•</text><text font-family="Calibri,Calibri_MSFontService,sans-serif" font-weight="400" font-size="13.3333" transform="matrix(1 0 0 0.999557 498.699 87)">JSONEditor</text><text font-family="Calibri,Calibri_MSFontService,sans-serif" font-weight="400" font-size="13.3333" transform="matrix(1 0 0 0.999557 562.281 87)">widgets and AJAX</text><text font-family="Calibri,Calibri_MSFontService,sans-serif" font-weight="400" font-size="13.3333" transform="matrix(1 0 0 0.999557 498.699 101)">actions</text><text font-family="Calibri,Calibri_MSFontService,sans-serif" font-weight="400" font-size="13.3333" transform="matrix(1 0 0 0.999557 489.162 127)">•</text><text font-family="Calibri,Calibri_MSFontService,sans-serif" font-weight="400" font-size="13.3333" transform="matrix(1 0 0 0.999557 498.699 127)">ModelAdmin</text><text font-family="Calibri,Calibri_MSFontService,sans-serif" font-weight="400" font-size="13.3333" transform="matrix(1 0 0 0.999557 569.304 127)">,</text><text font-family="Calibri,Calibri_MSFontService,sans-serif" font-weight="400" font-size="13.3333" transform="matrix(1 0 0 0.999557 575.647 127)">InlineAdmin</text><text font-family="Calibri,Calibri_MSFontService,sans-serif" font-weight="400" font-size="13.3333" transform="matrix(1 0 0 0.999557 641.242 127)">, Cards,</text><text font-family="Calibri,Calibri_MSFontService,sans-serif" font-weight="400" font-size="13.3333" transform="matrix(1 0 0 0.999557 498.699 142)">Views</text><text font-family="Calibri,Calibri_MSFontService,sans-serif" font-weight="400" font-size="13.3333" transform="matrix(1 0 0 0.999557 489.162 159)">•</text><text font-family="Calibri,Calibri_MSFontService,sans-serif" font-weight="400" font-size="13.3333" transform="matrix(1 0 0 0.999557 498.699 159)">Declarative definitions of UI logic</text><text font-family="Calibri,Calibri_MSFontService,sans-serif" font-weight="400" font-size="13.3333" transform="matrix(1 0 0 0.999557 489.162 192)">•</text><text font-family="Calibri,Calibri_MSFontService,sans-serif" font-weight="400" font-size="13.3333" transform="matrix(1 0 0 0.999557 498.699 192)">AdminSite</text><text font-family="Calibri,Calibri_MSFontService,sans-serif" font-weight="400" font-size="13.3333" transform="matrix(1 0 0 0.999557 557.465 192)">registry, routing,</text><text font-family="Calibri,Calibri_MSFontService,sans-serif" font-weight="400" font-size="13.3333" transform="matrix(1 0 0 0.999557 498.699 207)">settings</text><text font-family="Calibri,Calibri_MSFontService,sans-serif" font-weight="400" font-size="13.3333" transform="matrix(1 0 0 0.999557 489.162 224)">•</text><text font-family="Calibri,Calibri_MSFontService,sans-serif" font-weight="400" font-size="13.3333" transform="matrix(1 0 0 0.999557 498.699 224)">Adapters and model discovery</text><text font-family="Calibri,Calibri_MSFontService,sans-serif" font-weight="400" font-size="13.3333" transform="matrix(1 0 0 0.999557 489.162 250)">•</text><text font-family="Calibri,Calibri_MSFontService,sans-serif" font-weight="400" font-size="13.3333" transform="matrix(1 0 0 0.999557 498.699 250)">Bridges ORM, API, or data source</text><text font-family="Calibri,Calibri_MSFontService,sans-serif" font-weight="400" font-size="13.3333" transform="matrix(1 0 0 0.999557 498.699 265)">logic</text><text font-family="Calibri,Calibri_MSFontService,sans-serif" font-weight="400" font-size="13.3333" transform="matrix(1 0 0 0.999557 489.162 282)">•</text><text font-family="Calibri,Calibri_MSFontService,sans-serif" font-weight="400" font-size="13.3333" transform="matrix(1 0 0 0.999557 498.699 282)">Provides CRUD interface and</text><text font-family="Calibri,Calibri_MSFontService,sans-serif" font-weight="400" font-size="13.3333" transform="matrix(1 0 0 0.999557 498.699 296)">metadata</text></g></svg>