<svg width="800" height="450" xmlns="http://www.w3.org/2000/svg" xmlns:xlink="http://www.w3.org/1999/xlink" overflow="hidden"><defs><clipPath id="clip0"><rect x="0" y="0" width="753" height="565"/></clipPath></defs><g clip-path="url(#clip0)"><rect x="0" y="0" width="753" height="565.25" fill="#FFFFFF"/><path d="M210.5 401.678C117.164 401.678 41.5 325.98 41.5 232.603 41.5 139.226 117.164 63.5281 210.5 63.5281L210.5 232.603Z" stroke="#FFFFFF" stroke-width="1.33392" stroke-miterlimit="8" fill="#959595" fill-rule="evenodd"/><rect x="210.5" y="63.5281" width="502" height="338.15" stroke="#959595" stroke-width="1.33392" stroke-miterlimit="8" fill="#FFFFFF" fill-opacity="0.901961"/><text font-family="Calibri,Calibri_MSFontService,sans-serif" font-weight="400" font-size="24.0213" transform="matrix(1 0 0 1.00044 290.766 106)">Frontend</text><path d="M210 384.67C141.241 384.67 85.5 328.905 85.5 260.115 85.5 191.325 141.241 135.56 210 135.56L210 260.115Z" stroke="#FFFFFF" stroke-width="1.33392" stroke-miterlimit="8" fill="#A5A5A5" fill-rule="evenodd"/><rect x="210.5" y="135.56" width="502" height="249.11" stroke="#A5A5A5" stroke-width="1.33392" stroke-miterlimit="8" fill="#FFFFFF" fill-opacity="0.901961"/><text font-family="Calibri,Calibri_MSFontService,sans-serif" font-weight="400" font-size="24.0213" transform="matrix(1 0 0 1.00044 274.642 178)">Admin Layer</text><path d="M210 367.663C165.541 367.663 129.5 331.83 129.5 287.627 129.5 243.425 165.541 207.592 210 207.592L210 287.627Z" stroke="#FFFFFF" stroke-width="1.33392" stroke-miterlimit="8" fill="#B6B6B6" fill-rule="evenodd"/><rect x="210.5" y="207.592" width="502" height="160.071" stroke="#B6B6B6" stroke-width="1.33392" stroke-miterlimit="8" fill="#FFFFFF" fill-opacity="0.901961"/><text font-family="Calibri,Calibri_MSFontService,sans-serif" font-weight="400" font-size="24.0213" transform="matrix(1 0 0 1.00044 283.813 250)">Core Layer</text><path d="M210 351.656C190.394 351.656 174.5 335.531 174.5 315.64 174.5 295.749 190.394 279.624 210 279.624L210 315.64Z" stroke="#FFFFFF" stroke-width="1.33392" stroke-miterlimit="8" fill="#C6C6C6" fill-rule="evenodd"/><rect x="210.5" y="279.624" width="502" height="72.0318" stroke="#C6C6C6" stroke-width="1.33392" stroke-miterlimit="8" fill="#FFFFFF" fill-opacity="0.901961"/><text font-family="Calibri,Calibri_MSFontService,sans-serif" font-weight="400" font-size="24.0213" transform="matrix(1 0 0 1.00044 216.88 322)">Adapter and</text><text font-family="Calibri,Calibri_MSFontService,sans-serif" font-weight="400" font-size="24.0213" transform="matrix(1 0 0 1.00044 343.069 322)">Connectors</text><text font-family="Calibri,Calibri_MSFontService,sans-serif" font-weight="400" font-size="14.6797" transform="matrix(1 0 0 1.00044 486.987 78)">•</text><text font-family="Calibri,Calibri_MSFontService,sans-serif" font-weight="400" font-size="14.6797" transform="matrix(1 0 0 1.00044 494.297 78)">HTML Templates, Bootstrap 5,</text><text font-family="Calibri,Calibri_MSFontService,sans-serif" font-weight="400" font-size="14.6797" transform="matrix(1 0 0 1.00044 492.99 94)">jQuery</text><text font-family="Calibri,Calibri_MSFontService,sans-serif" font-weight="400" font-size="14.6797" transform="matrix(1 0 0 1.00044 486.987 113)">•</text><text font-family="Calibri,Calibri_MSFontService,sans-serif" font-weight="400" font-size="14.6797" transform="matrix(1 0 0 1.00044 494.297 113)">JSONEditor</text><text font-family="Calibri,Calibri_MSFontService,sans-serif" font-weight="400" font-size="14.6797" transform="matrix(1 0 0 1.00044 564.228 113)">widgets and AJAX</text><text font-family="Calibri,Calibri_MSFontService,sans-serif" font-weight="400" font-size="14.6797" transform="matrix(1 0 0 1.00044 492.99 129)">actions</text><text font-family="Calibri,Calibri_MSFontService,sans-serif" font-weight="400" font-size="14.6797" transform="matrix(1 0 0 1.00044 486.987 150)">•</text><text font-family="Calibri,Calibri_MSFontService,sans-serif" font-weight="400" font-size="14.6797" transform="matrix(1 0 0 1.00044 494.297 150)">ModelAdmin</text><text font-family="Calibri,Calibri_MSFontService,sans-serif" font-weight="400" font-size="14.6797" transform="matrix(1 0 0 1.00044 571.958 150)">,</text><text font-family="Calibri,Calibri_MSFontService,sans-serif" font-weight="400" font-size="14.6797" transform="matrix(1 0 0 1.00044 578.935 150)">InlineAdmin</text><text font-family="Calibri,Calibri_MSFontService,sans-serif" font-weight="400" font-size="14.6797" transform="matrix(1 0 0 1.00044 651.086 150)">,</text><text font-family="Calibri,Calibri_MSFontService,sans-serif" font-weight="400" font-size="14.6797" transform="matrix(1 0 0 1.00044 492.99 166)">Cards, Views</text><text font-family="Calibri,Calibri_MSFontService,sans-serif" font-weight="400" font-size="14.6797" transform="matrix(1 0 0 1.00044 486.987 185)">•</text><text font-family="Calibri,Calibri_MSFontService,sans-serif" font-weight="400" font-size="14.6797" transform="matrix(1 0 0 1.00044 494.297 185)">Declarative definitions of UI</text><text font-family="Calibri,Calibri_MSFontService,sans-serif" font-weight="400" font-size="14.6797" transform="matrix(1 0 0 1.00044 492.99 201)">logic</text><text font-family="Calibri,Calibri_MSFontService,sans-serif" font-weight="400" font-size="14.6797" transform="matrix(1 0 0 1.00044 486.987 230)">•</text><text font-family="Calibri,Calibri_MSFontService,sans-serif" font-weight="400" font-size="14.6797" transform="matrix(1 0 0 1.00044 494.297 230)">AdminSite</text><text font-family="Calibri,Calibri_MSFontService,sans-serif" font-weight="400" font-size="14.6797" transform="matrix(1 0 0 1.00044 558.939 230)">registry, routing,</text><text font-family="Calibri,Calibri_MSFontService,sans-serif" font-weight="400" font-size="14.6797" transform="matrix(1 0 0 1.00044 492.99 246)">settings</text><text font-family="Calibri,Calibri_MSFontService,sans-serif" font-weight="400" font-size="14.6797" transform="matrix(1 0 0 1.00044 486.987 265)">•</text><text font-family="Calibri,Calibri_MSFontService,sans-serif" font-weight="400" font-size="14.6797" transform="matrix(1 0 0 1.00044 494.297 265)">Adapters and model discovery</text><text font-family="Calibri,Calibri_MSFontService,sans-serif" font-weight="400" font-size="14.6797" transform="matrix(1 0 0 1.00044 486.987 293)">•</text><text font-family="Calibri,Calibri_MSFontService,sans-serif" font-weight="400" font-size="14.6797" transform="matrix(1 0 0 1.00044 494.297 293)">Bridges ORM, API, or data</text><text font-family="Calibri,Calibri_MSFontService,sans-serif" font-weight="400" font-size="14.6797" transform="matrix(1 0 0 1.00044 492.99 309)">source logic</text><text font-family="Calibri,Calibri_MSFontService,sans-serif" font-weight="400" font-size="14.6797" transform="matrix(1 0 0 1.00044 486.987 328)">•</text><text font-family="Calibri,Calibri_MSFontService,sans-serif" font-weight="400" font-size="14.6797" transform="matrix(1 0 0 1.00044 494.297 328)">Provides CRUD interface and</text><text font-family="Calibri,Calibri_MSFontService,sans-serif" font-weight="400" font-size="14.6797" transform="matrix(1 0 0 1.00044 492.99 344)">metadata</text></g></svg>
